<svg id="svg" version="1.1" xmlns="http://www.w3.org/2000/svg" xmlns:xlink="http://www.w3.org/1999/xlink" width="400" height="182.8" viewBox="0, 0, 400,182.8"><g id="svgg"><path id="path0" d="M190.173 32.203 L 190.219 46.124 191.682 46.459 C 192.486 46.644,193.287 46.879,193.462 46.981 C 193.636 47.083,193.981 47.166,194.228 47.166 C 194.475 47.166,194.728 47.249,194.790 47.349 C 194.852 47.450,195.087 47.532,195.312 47.532 C 195.538 47.532,195.800 47.600,195.896 47.683 C 195.991 47.766,196.440 47.946,196.892 48.084 C 197.345 48.221,198.284 48.605,198.979 48.938 C 199.674 49.271,200.353 49.543,200.487 49.543 C 200.621 49.543,200.731 49.625,200.731 49.726 C 200.731 49.826,200.852 49.909,200.999 49.909 C 201.146 49.909,201.660 50.128,202.142 50.396 C 203.596 51.206,204.134 51.508,204.581 51.765 C 205.164 52.102,207.931 53.973,208.044 54.108 C 208.094 54.167,208.473 54.461,208.885 54.759 C 210.270 55.760,211.597 56.927,213.346 58.680 C 215.103 60.442,215.416 60.788,216.729 62.431 C 217.130 62.934,217.521 63.373,217.596 63.406 C 217.671 63.440,217.733 63.577,217.733 63.711 C 217.733 63.845,217.801 63.982,217.884 64.016 C 218.052 64.083,219.986 66.843,220.169 67.276 C 220.233 67.427,220.488 67.879,220.736 68.282 C 220.984 68.684,221.418 69.465,221.700 70.018 C 221.982 70.571,222.274 71.051,222.349 71.085 C 222.425 71.118,222.486 71.247,222.486 71.370 C 222.486 71.494,222.640 71.919,222.828 72.315 C 223.016 72.711,223.311 73.364,223.483 73.766 C 223.656 74.168,223.872 74.640,223.964 74.815 C 224.056 74.989,224.132 75.258,224.132 75.411 C 224.132 75.565,224.214 75.854,224.314 76.054 C 224.415 76.253,224.580 76.580,224.680 76.780 C 224.781 76.980,224.863 77.333,224.863 77.566 C 224.863 77.799,224.934 78.067,225.020 78.163 C 225.107 78.258,225.323 78.953,225.500 79.707 C 225.678 80.462,225.895 81.317,225.983 81.609 C 226.071 81.900,226.143 82.409,226.143 82.740 C 226.143 83.071,226.213 83.386,226.299 83.439 C 226.771 83.731,226.976 95.428,226.557 98.172 C 226.126 100.989,225.314 104.516,225.021 104.835 C 224.934 104.931,224.863 105.223,224.863 105.484 C 224.863 105.746,224.797 106.038,224.717 106.133 C 224.637 106.229,224.468 106.636,224.340 107.038 C 223.323 110.250,219.451 117.691,218.601 118.068 C 218.526 118.102,218.464 118.239,218.464 118.373 C 218.464 118.507,218.402 118.644,218.325 118.678 C 218.249 118.711,217.720 119.356,217.149 120.110 C 214.999 122.954,211.954 126.015,209.330 127.971 C 208.993 128.222,208.627 128.514,208.518 128.618 C 208.059 129.056,205.879 130.530,205.690 130.530 C 205.577 130.530,205.484 130.612,205.484 130.713 C 205.484 130.814,205.404 130.896,205.305 130.896 C 205.207 130.896,204.692 131.170,204.163 131.506 C 203.633 131.841,202.932 132.231,202.605 132.373 C 202.278 132.515,202.011 132.693,202.011 132.769 C 202.011 132.845,201.893 132.907,201.748 132.907 C 201.603 132.907,201.048 133.146,200.514 133.439 C 199.980 133.732,199.173 134.110,198.720 134.279 C 197.662 134.674,197.062 134.920,196.666 135.122 C 196.492 135.211,196.223 135.283,196.069 135.283 C 195.916 135.283,195.647 135.355,195.473 135.442 C 194.965 135.695,193.961 136.020,192.779 136.313 C 192.176 136.462,191.332 136.680,190.905 136.797 L 190.128 137.009 190.128 150.680 L 190.128 164.351 286.015 164.351 L 381.901 164.351 381.901 91.316 L 381.901 18.282 286.013 18.282 L 190.126 18.282 190.173 32.203 M312.570 46.404 C 312.751 46.519,312.790 48.497,312.753 55.679 L 312.706 64.808 298.035 64.855 L 283.365 64.902 283.319 99.681 L 283.272 134.461 274.244 134.508 C 267.729 134.542,265.146 134.498,264.966 134.349 C 264.757 134.175,264.717 128.537,264.717 99.522 L 264.717 64.902 250.137 64.855 L 235.558 64.808 235.510 55.679 C 235.473 48.497,235.512 46.519,235.693 46.404 C 235.994 46.213,312.269 46.213,312.570 46.404 M344.388 46.472 C 344.620 46.704,344.728 133.659,344.496 134.263 C 344.382 134.559,326.998 134.729,326.249 134.441 C 325.778 134.260,325.809 46.724,326.280 46.450 C 326.769 46.165,344.102 46.186,344.388 46.472 " stroke="none" fill="#2c9cfb" fill-rule="evenodd"></path><path id="path1" d="M18.099 91.408 L 18.099 164.534 94.790 164.534 L 171.481 164.534 171.481 150.731 L 171.481 136.929 171.082 136.929 C 170.863 136.929,170.431 136.852,170.123 136.758 C 169.814 136.665,169.191 136.490,168.739 136.371 C 167.524 136.051,165.221 135.292,164.856 135.092 C 164.682 134.996,164.413 134.918,164.260 134.918 C 164.106 134.918,163.838 134.841,163.663 134.747 C 163.488 134.653,162.894 134.385,162.343 134.153 C 155.479 131.255,148.658 125.947,144.000 119.880 C 142.040 117.327,139.122 112.592,139.122 111.963 C 139.122 111.819,139.040 111.700,138.940 111.700 C 138.839 111.700,138.757 111.592,138.757 111.460 C 138.757 111.328,138.603 110.896,138.415 110.501 C 137.910 109.435,137.547 108.580,137.297 107.861 C 137.175 107.509,137.010 107.057,136.932 106.856 C 136.790 106.492,136.267 104.765,135.768 103.016 C 133.937 96.593,134.005 86.266,135.922 79.616 C 136.096 79.013,136.280 78.292,136.330 78.014 C 136.381 77.736,136.495 77.464,136.584 77.409 C 136.673 77.354,136.746 77.113,136.746 76.874 C 136.746 76.634,136.828 76.388,136.929 76.325 C 137.029 76.263,137.112 76.016,137.112 75.777 C 137.112 75.537,137.194 75.291,137.294 75.229 C 137.395 75.166,137.477 74.994,137.477 74.844 C 137.477 74.365,140.068 68.994,140.789 67.979 C 140.978 67.712,141.133 67.404,141.133 67.294 C 141.133 67.183,141.216 67.093,141.316 67.093 C 141.417 67.093,141.499 67.003,141.499 66.893 C 141.499 66.721,143.396 63.880,143.685 63.620 C 143.741 63.569,144.031 63.199,144.330 62.797 C 145.662 61.005,149.338 57.268,151.463 55.546 C 152.913 54.370,155.848 52.285,156.053 52.285 C 156.111 52.285,156.378 52.130,156.645 51.940 C 157.633 51.236,159.841 50.071,161.700 49.272 C 162.102 49.100,162.761 48.813,163.163 48.635 C 163.565 48.457,164.182 48.210,164.534 48.086 C 164.886 47.962,165.338 47.796,165.539 47.717 C 165.740 47.638,166.275 47.470,166.728 47.344 C 167.180 47.217,167.879 47.013,168.282 46.889 C 168.684 46.766,169.465 46.561,170.018 46.435 C 170.571 46.309,171.127 46.178,171.252 46.144 C 171.433 46.094,171.481 43.146,171.481 32.181 L 171.481 18.282 94.790 18.282 L 18.099 18.282 18.099 91.408 M58.927 45.763 C 59.773 46.652,61.602 48.635,62.340 49.464 C 62.692 49.859,63.638 50.886,64.442 51.747 C 68.135 55.696,70.206 57.933,70.950 58.775 C 71.713 59.640,72.685 60.685,74.925 63.047 C 75.462 63.614,76.284 64.514,76.753 65.048 C 77.222 65.582,78.142 66.581,78.797 67.266 C 79.453 67.952,80.646 69.241,81.448 70.131 C 82.250 71.020,83.071 71.915,83.272 72.120 C 83.802 72.658,85.860 74.875,86.972 76.104 L 87.929 77.162 89.531 75.483 C 91.449 73.473,91.991 72.891,93.784 70.922 C 95.737 68.777,96.062 68.424,97.321 67.087 C 97.940 66.430,99.310 64.951,100.366 63.800 C 101.421 62.649,102.532 61.455,102.834 61.147 C 103.135 60.839,104.013 59.891,104.783 59.041 C 105.554 58.191,106.582 57.074,107.069 56.558 C 107.555 56.043,108.569 54.940,109.324 54.107 C 110.078 53.274,110.941 52.336,111.243 52.021 C 111.545 51.706,112.157 51.040,112.605 50.541 C 115.236 47.606,117.645 45.156,117.898 45.159 C 118.059 45.160,118.810 45.757,119.568 46.484 C 120.325 47.211,121.397 48.218,121.949 48.720 C 122.500 49.223,123.887 50.498,125.031 51.554 C 126.174 52.610,127.333 53.679,127.605 53.931 C 127.878 54.182,128.812 55.034,129.681 55.823 C 130.550 56.613,131.261 57.344,131.261 57.448 C 131.261 57.624,129.364 59.851,128.337 60.879 C 128.085 61.132,127.515 61.749,127.069 62.250 C 126.623 62.752,125.300 64.191,124.128 65.448 C 122.956 66.705,121.635 68.138,121.191 68.633 C 120.747 69.128,119.931 70.005,119.378 70.582 C 118.825 71.159,117.797 72.271,117.093 73.053 C 116.389 73.835,115.484 74.817,115.082 75.237 C 114.680 75.656,113.569 76.852,112.614 77.894 C 110.407 80.303,108.836 81.996,104.831 86.288 C 103.940 87.242,103.044 88.228,102.839 88.478 C 102.498 88.896,100.539 91.015,99.452 92.143 C 99.200 92.403,98.624 93.006,98.172 93.482 L 97.349 94.348 97.258 114.404 L 97.166 134.461 88.026 134.461 L 78.885 134.461 78.838 114.557 L 78.792 94.653 78.220 93.990 C 77.905 93.626,77.021 92.668,76.255 91.862 C 75.489 91.056,74.081 89.536,73.126 88.484 C 72.171 87.432,71.225 86.398,71.024 86.187 C 70.823 85.975,69.877 84.951,68.921 83.911 C 67.966 82.872,66.603 81.398,65.891 80.636 C 65.180 79.874,64.234 78.842,63.789 78.343 C 63.344 77.845,62.733 77.180,62.431 76.866 C 61.699 76.105,59.892 74.161,57.770 71.854 C 56.814 70.815,55.745 69.660,55.393 69.287 C 55.041 68.914,54.136 67.924,53.382 67.088 C 52.628 66.251,51.347 64.862,50.535 63.999 C 49.723 63.137,48.695 62.027,48.250 61.533 C 47.805 61.039,46.846 60.011,46.118 59.248 C 44.330 57.372,44.108 57.865,48.633 53.667 C 49.385 52.970,50.619 51.818,51.377 51.108 C 52.134 50.398,53.614 49.036,54.666 48.080 C 55.718 47.125,56.826 46.083,57.129 45.763 C 57.837 45.016,58.215 45.016,58.927 45.763 M175.411 64.076 C 166.460 65.965,159.269 71.490,155.544 79.342 C 154.231 82.109,153.978 82.887,153.008 87.147 C 152.786 88.124,152.780 95.082,153.001 95.957 C 153.092 96.320,153.264 97.070,153.381 97.623 C 154.359 102.233,156.814 106.906,160.186 110.577 C 162.740 113.358,168.896 117.550,170.425 117.550 C 170.563 117.550,170.755 117.622,170.850 117.710 C 171.596 118.394,177.720 119.560,180.579 119.562 C 191.787 119.571,202.094 112.697,206.486 102.285 C 206.656 101.883,206.857 101.431,206.932 101.280 C 207.125 100.894,207.967 97.731,208.199 96.527 C 209.090 91.882,208.611 86.415,206.908 81.810 C 206.067 79.536,203.418 74.966,202.130 73.566 C 198.505 69.628,195.252 67.300,190.768 65.436 C 186.581 63.694,179.988 63.111,175.411 64.076 " stroke="none" fill="#c3caca" fill-rule="evenodd"></path><path id="path2" d="M0.000 91.408 L 0.000 182.815 200.000 182.815 L 400.000 182.815 400.000 91.408 L 400.000 0.000 200.000 0.000 L 0.000 0.000 0.000 91.408 M171.619 32.193 L 171.666 46.378 170.248 46.686 C 168.853 46.989,166.623 47.611,165.905 47.898 C 165.704 47.978,165.251 48.144,164.899 48.266 C 164.548 48.389,163.911 48.644,163.485 48.833 C 163.058 49.023,162.664 49.177,162.608 49.177 C 162.476 49.177,158.151 51.308,157.687 51.602 C 154.464 53.642,152.252 55.215,150.560 56.669 C 149.841 57.287,146.049 61.086,145.704 61.535 C 145.553 61.731,144.975 62.465,144.418 63.167 C 143.255 64.634,142.048 66.315,142.048 66.467 C 142.048 66.524,141.792 66.942,141.479 67.396 C 140.767 68.431,138.606 72.670,138.045 74.132 C 137.814 74.735,137.556 75.393,137.471 75.594 C 137.387 75.795,137.232 76.248,137.127 76.600 C 137.022 76.952,136.740 77.856,136.501 78.611 C 136.262 79.365,135.966 80.475,135.843 81.079 C 135.720 81.682,135.550 82.505,135.465 82.907 C 134.031 89.716,134.398 97.335,136.508 104.570 C 136.757 105.425,137.036 106.267,137.128 106.442 C 137.219 106.616,137.294 106.885,137.294 107.038 C 137.294 107.192,137.370 107.460,137.462 107.635 C 137.727 108.135,138.391 109.674,138.391 109.787 C 138.391 109.971,140.094 113.421,140.537 114.134 C 140.775 114.518,141.139 115.135,141.345 115.506 C 145.565 123.082,154.192 130.454,163.254 134.228 C 163.505 134.333,163.876 134.486,164.077 134.569 C 164.790 134.864,167.751 135.802,168.921 136.104 C 169.575 136.273,170.460 136.504,170.888 136.619 L 171.666 136.826 171.619 150.817 L 171.572 164.808 94.790 164.808 L 18.007 164.808 17.961 91.590 C 17.935 51.321,17.953 18.270,18.001 18.144 C 18.070 17.962,33.532 17.925,94.830 17.961 L 171.572 18.007 171.619 32.193 M382.039 91.362 L 382.085 164.717 285.969 164.671 L 189.854 164.625 189.854 150.748 L 189.854 136.871 190.585 136.638 C 190.987 136.509,191.645 136.320,192.048 136.218 C 196.305 135.134,201.255 133.057,204.445 131.017 C 205.021 130.649,205.537 130.347,205.592 130.347 C 205.647 130.347,205.995 130.126,206.365 129.855 C 207.937 128.707,209.055 127.874,209.141 127.788 C 209.191 127.738,209.644 127.374,210.146 126.980 C 211.374 126.017,215.290 122.122,216.088 121.071 C 216.440 120.607,216.823 120.132,216.940 120.015 C 217.109 119.846,219.321 116.586,220.536 114.717 C 221.055 113.918,222.648 110.598,223.300 108.958 C 223.679 108.003,224.055 107.057,224.136 106.856 C 224.348 106.324,225.162 103.519,225.382 102.559 C 225.487 102.107,225.626 101.531,225.693 101.280 C 225.825 100.782,226.055 99.482,226.339 97.623 C 226.954 93.599,226.662 85.636,225.769 82.084 C 225.680 81.732,225.473 80.870,225.308 80.169 C 225.007 78.889,224.087 75.912,223.781 75.229 C 223.691 75.027,223.488 74.516,223.330 74.092 C 222.876 72.873,221.201 69.472,220.534 68.415 C 220.200 67.885,219.927 67.371,219.927 67.273 C 219.927 67.174,219.845 67.093,219.744 67.093 C 219.644 67.093,219.561 67.007,219.561 66.901 C 219.561 66.731,217.650 63.855,217.381 63.620 C 217.323 63.569,216.948 63.117,216.547 62.614 C 213.809 59.183,209.927 55.583,206.673 53.458 C 206.069 53.064,205.548 52.681,205.515 52.605 C 205.481 52.530,205.371 52.468,205.269 52.468 C 205.167 52.468,204.865 52.313,204.599 52.124 C 204.332 51.935,203.579 51.496,202.925 51.150 C 202.271 50.803,201.572 50.430,201.371 50.320 C 199.975 49.558,196.346 48.081,194.973 47.715 C 194.671 47.634,194.177 47.479,193.876 47.369 C 193.574 47.259,192.546 46.974,191.590 46.735 L 189.854 46.300 189.807 32.257 C 189.770 21.143,189.808 18.183,189.990 18.067 C 190.116 17.987,233.368 17.941,286.106 17.964 L 381.993 18.007 382.039 91.362 M54.570 48.564 C 52.660 50.335,50.238 52.575,49.189 53.543 C 44.785 57.603,44.961 57.417,45.205 57.765 C 45.400 58.042,47.779 60.637,49.593 62.550 C 49.918 62.891,50.583 63.622,51.071 64.172 C 51.560 64.723,52.506 65.750,53.174 66.454 C 53.841 67.158,54.836 68.228,55.383 68.831 C 55.930 69.434,56.959 70.547,57.668 71.304 C 58.378 72.062,59.739 73.537,60.695 74.581 C 61.650 75.626,62.596 76.654,62.797 76.864 C 62.998 77.075,63.944 78.109,64.899 79.160 C 65.855 80.212,67.260 81.732,68.023 82.538 C 68.786 83.344,69.773 84.412,70.217 84.911 C 70.661 85.410,71.271 86.073,71.572 86.385 C 71.874 86.697,72.902 87.805,73.857 88.847 C 76.036 91.224,77.835 93.157,78.428 93.760 L 78.885 94.225 78.976 114.160 L 79.068 134.095 87.822 134.143 C 94.134 134.177,96.646 134.132,96.826 133.983 C 97.033 133.811,97.076 130.478,97.080 114.009 L 97.085 94.241 98.314 92.948 C 98.990 92.237,101.229 89.820,103.291 87.576 C 105.352 85.332,107.270 83.246,107.552 82.942 C 107.835 82.637,108.904 81.478,109.929 80.367 C 110.953 79.255,111.997 78.129,112.249 77.865 C 112.500 77.601,113.111 76.941,113.606 76.398 C 114.102 75.855,115.467 74.383,116.640 73.126 C 117.813 71.869,119.164 70.397,119.642 69.855 C 120.119 69.313,120.688 68.691,120.904 68.472 C 121.260 68.112,122.194 67.105,126.496 62.442 C 127.243 61.632,128.026 60.804,128.235 60.603 C 128.444 60.402,129.167 59.615,129.841 58.853 L 131.066 57.469 130.450 56.934 C 130.112 56.639,128.943 55.568,127.852 54.552 C 126.761 53.537,125.337 52.221,124.688 51.627 C 124.038 51.034,122.887 49.962,122.128 49.246 C 120.738 47.933,119.182 46.510,118.302 45.747 L 117.824 45.333 116.819 46.393 C 116.266 46.977,115.450 47.862,115.007 48.361 C 114.563 48.860,113.575 49.929,112.813 50.737 C 112.050 51.544,110.564 53.149,109.510 54.302 C 108.457 55.455,107.051 56.974,106.386 57.678 C 105.721 58.382,104.814 59.368,104.371 59.870 C 103.928 60.372,103.359 60.990,103.108 61.243 C 102.856 61.496,102.285 62.114,101.839 62.616 C 101.392 63.118,100.065 64.557,98.891 65.814 C 97.717 67.070,96.355 68.544,95.864 69.087 C 95.374 69.631,94.726 70.336,94.424 70.654 C 94.122 70.973,93.053 72.129,92.048 73.224 C 88.690 76.882,88.220 77.346,87.928 77.292 C 87.649 77.242,87.050 76.625,82.815 72.038 C 81.760 70.894,80.719 69.778,80.502 69.557 C 80.285 69.336,79.717 68.712,79.240 68.170 C 78.762 67.628,77.376 66.118,76.160 64.815 C 73.511 61.976,72.026 60.374,69.470 57.598 C 68.414 56.451,67.386 55.339,67.185 55.125 C 66.984 54.912,66.408 54.288,65.905 53.738 C 65.402 53.189,63.997 51.670,62.783 50.364 C 61.569 49.058,60.212 47.580,59.767 47.081 C 58.783 45.976,58.170 45.337,58.098 45.341 C 58.068 45.342,56.481 46.793,54.570 48.564 M235.733 46.846 C 235.685 46.972,235.667 51.024,235.693 55.850 L 235.740 64.625 250.411 64.672 L 265.082 64.719 265.082 99.163 C 265.082 118.108,265.132 133.738,265.193 133.897 C 265.292 134.156,266.261 134.186,274.243 134.186 L 283.181 134.186 283.181 99.453 L 283.181 64.719 297.761 64.672 L 312.340 64.625 312.387 55.622 L 312.435 46.618 274.128 46.618 C 243.650 46.618,235.802 46.665,235.733 46.846 M326.410 46.846 C 326.362 46.972,326.344 66.654,326.370 90.585 L 326.417 134.095 335.271 134.143 C 342.234 134.180,344.157 134.141,344.272 133.960 C 344.441 133.695,344.481 47.345,344.313 46.907 C 344.164 46.519,326.557 46.459,326.410 46.846 M184.552 63.651 C 185.155 63.754,186.060 63.916,186.563 64.011 C 187.066 64.106,187.745 64.230,188.073 64.287 C 188.401 64.345,188.714 64.465,188.769 64.554 C 188.825 64.643,189.066 64.717,189.305 64.717 C 189.545 64.717,189.792 64.799,189.854 64.899 C 189.916 65.000,190.090 65.082,190.241 65.082 C 190.500 65.082,191.524 65.514,193.419 66.420 C 194.425 66.902,196.778 68.384,196.862 68.589 C 196.895 68.671,197.039 68.739,197.182 68.739 C 197.324 68.739,197.441 68.803,197.441 68.882 C 197.441 68.961,197.674 69.163,197.960 69.332 C 198.488 69.644,201.541 72.582,202.378 73.583 C 204.138 75.689,206.947 80.522,206.947 81.444 C 206.947 81.583,207.029 81.748,207.130 81.810 C 207.230 81.872,207.313 82.119,207.313 82.358 C 207.313 82.598,207.385 82.839,207.474 82.894 C 207.563 82.949,207.682 83.221,207.737 83.499 C 207.793 83.776,207.928 84.374,208.038 84.826 C 208.894 88.360,209.143 92.086,208.702 94.790 C 208.300 97.252,207.790 99.443,207.478 100.043 C 207.387 100.218,207.313 100.567,207.313 100.820 C 207.313 101.073,207.230 101.280,207.130 101.280 C 207.029 101.280,206.947 101.421,206.947 101.593 C 206.947 102.312,204.241 107.230,202.993 108.778 C 199.774 112.771,195.795 115.797,191.408 117.589 C 191.156 117.692,190.808 117.848,190.633 117.937 C 190.459 118.026,190.167 118.099,189.984 118.099 C 189.802 118.099,189.574 118.170,189.479 118.257 C 189.253 118.463,186.507 119.192,185.101 119.419 C 183.268 119.715,178.645 119.800,177.239 119.563 C 174.543 119.109,172.455 118.611,171.803 118.266 C 171.629 118.174,171.320 118.099,171.118 118.099 C 170.915 118.099,170.750 118.016,170.750 117.916 C 170.750 117.815,170.591 117.733,170.396 117.733 C 169.727 117.733,164.909 115.100,163.874 114.168 C 163.762 114.068,163.351 113.743,162.960 113.448 C 160.880 111.875,157.218 107.611,156.475 105.896 C 156.334 105.569,156.171 105.302,156.113 105.302 C 156.020 105.302,154.900 102.979,154.460 101.874 C 153.844 100.328,153.565 99.421,153.565 98.972 C 153.565 98.773,153.493 98.532,153.406 98.437 C 152.536 97.486,152.269 89.472,153.001 86.289 C 153.221 85.334,153.447 84.284,153.503 83.956 C 153.559 83.629,153.678 83.315,153.768 83.260 C 153.857 83.205,153.931 82.963,153.931 82.724 C 153.931 82.484,154.013 82.238,154.113 82.176 C 154.214 82.113,154.296 81.908,154.296 81.718 C 154.296 79.652,159.438 72.531,163.085 69.548 C 163.921 68.863,165.991 67.459,166.163 67.459 C 166.256 67.459,166.359 67.396,166.392 67.318 C 166.426 67.241,167.276 66.782,168.282 66.298 C 169.287 65.813,170.253 65.342,170.427 65.250 C 170.602 65.158,170.905 65.082,171.102 65.082 C 171.298 65.082,171.510 65.000,171.572 64.899 C 171.634 64.799,171.881 64.717,172.121 64.717 C 172.360 64.717,172.607 64.634,172.669 64.534 C 172.731 64.433,172.979 64.351,173.220 64.351 C 173.460 64.351,173.846 64.276,174.077 64.184 C 176.052 63.401,181.473 63.125,184.552 63.651 " stroke="none" fill="#343c44" fill-rule="evenodd"></path><path id="path3" d="M189.990 18.067 C 189.808 18.183,189.770 21.143,189.807 32.257 L 189.854 46.300 191.590 46.735 C 192.546 46.974,193.574 47.259,193.876 47.369 C 194.177 47.479,194.671 47.634,194.973 47.715 C 196.346 48.081,199.975 49.558,201.371 50.320 C 201.572 50.430,202.271 50.803,202.925 51.150 C 203.579 51.496,204.332 51.935,204.599 52.124 C 204.865 52.313,205.167 52.468,205.269 52.468 C 205.371 52.468,205.481 52.530,205.515 52.605 C 205.548 52.681,206.069 53.064,206.673 53.458 C 209.927 55.583,213.809 59.183,216.547 62.614 C 216.948 63.117,217.323 63.569,217.381 63.620 C 217.650 63.855,219.561 66.731,219.561 66.901 C 219.561 67.007,219.644 67.093,219.744 67.093 C 219.845 67.093,219.927 67.174,219.927 67.273 C 219.927 67.371,220.200 67.885,220.534 68.415 C 221.201 69.472,222.876 72.873,223.330 74.092 C 223.488 74.516,223.691 75.027,223.781 75.229 C 224.087 75.912,225.007 78.889,225.308 80.169 C 225.473 80.870,225.680 81.732,225.769 82.084 C 226.662 85.636,226.954 93.599,226.339 97.623 C 226.055 99.482,225.825 100.782,225.693 101.280 C 225.626 101.531,225.487 102.107,225.382 102.559 C 225.162 103.519,224.348 106.324,224.136 106.856 C 224.055 107.057,223.679 108.003,223.300 108.958 C 222.648 110.598,221.055 113.918,220.536 114.717 C 219.321 116.586,217.109 119.846,216.940 120.015 C 216.823 120.132,216.440 120.607,216.088 121.071 C 215.290 122.122,211.374 126.017,210.146 126.980 C 209.644 127.374,209.191 127.738,209.141 127.788 C 209.055 127.874,207.937 128.707,206.365 129.855 C 205.995 130.126,205.647 130.347,205.592 130.347 C 205.537 130.347,205.021 130.649,204.445 131.017 C 201.255 133.057,196.305 135.134,192.048 136.218 C 191.645 136.320,190.987 136.509,190.585 136.638 L 189.854 136.871 189.854 150.748 L 189.854 164.625 285.969 164.671 L 382.085 164.717 382.039 91.362 L 381.993 18.007 286.106 17.964 C 233.368 17.941,190.116 17.987,189.990 18.067 M381.901 91.316 L 381.901 164.351 286.015 164.351 L 190.128 164.351 190.128 150.680 L 190.128 137.009 190.905 136.797 C 191.332 136.680,192.176 136.462,192.779 136.313 C 193.961 136.020,194.965 135.695,195.473 135.442 C 195.647 135.355,195.916 135.283,196.069 135.283 C 196.223 135.283,196.492 135.211,196.666 135.122 C 197.062 134.920,197.662 134.674,198.720 134.279 C 199.173 134.110,199.980 133.732,200.514 133.439 C 201.048 133.146,201.603 132.907,201.748 132.907 C 201.893 132.907,202.011 132.845,202.011 132.769 C 202.011 132.693,202.278 132.515,202.605 132.373 C 202.932 132.231,203.633 131.841,204.163 131.506 C 204.692 131.170,205.207 130.896,205.305 130.896 C 205.404 130.896,205.484 130.814,205.484 130.713 C 205.484 130.612,205.577 130.530,205.690 130.530 C 205.879 130.530,208.059 129.056,208.518 128.618 C 208.627 128.514,208.993 128.222,209.330 127.971 C 211.954 126.015,214.999 122.954,217.149 120.110 C 217.720 119.356,218.249 118.711,218.325 118.678 C 218.402 118.644,218.464 118.507,218.464 118.373 C 218.464 118.239,218.526 118.102,218.601 118.068 C 219.451 117.691,223.323 110.250,224.340 107.038 C 224.468 106.636,224.637 106.229,224.717 106.133 C 224.797 106.038,224.863 105.746,224.863 105.484 C 224.863 105.223,224.934 104.931,225.021 104.835 C 225.314 104.516,226.126 100.989,226.557 98.172 C 226.976 95.428,226.771 83.731,226.299 83.439 C 226.213 83.386,226.143 83.071,226.143 82.740 C 226.143 82.409,226.071 81.900,225.983 81.609 C 225.895 81.317,225.678 80.462,225.500 79.707 C 225.323 78.953,225.107 78.258,225.020 78.163 C 224.934 78.067,224.863 77.799,224.863 77.566 C 224.863 77.333,224.781 76.980,224.680 76.780 C 224.580 76.580,224.415 76.253,224.314 76.054 C 224.214 75.854,224.132 75.565,224.132 75.411 C 224.132 75.258,224.056 74.989,223.964 74.815 C 223.872 74.640,223.656 74.168,223.483 73.766 C 223.311 73.364,223.016 72.711,222.828 72.315 C 222.640 71.919,222.486 71.494,222.486 71.370 C 222.486 71.247,222.425 71.118,222.349 71.085 C 222.274 71.051,221.982 70.571,221.700 70.018 C 221.418 69.465,220.984 68.684,220.736 68.282 C 220.488 67.879,220.233 67.427,220.169 67.276 C 219.986 66.843,218.052 64.083,217.884 64.016 C 217.801 63.982,217.733 63.845,217.733 63.711 C 217.733 63.577,217.671 63.440,217.596 63.406 C 217.521 63.373,217.130 62.934,216.729 62.431 C 215.416 60.788,215.103 60.442,213.346 58.680 C 211.597 56.927,210.270 55.760,208.885 54.759 C 208.473 54.461,208.094 54.167,208.044 54.108 C 207.931 53.973,205.164 52.102,204.581 51.765 C 204.134 51.508,203.596 51.206,202.142 50.396 C 201.660 50.128,201.146 49.909,200.999 49.909 C 200.852 49.909,200.731 49.826,200.731 49.726 C 200.731 49.625,200.621 49.543,200.487 49.543 C 200.353 49.543,199.674 49.271,198.979 48.938 C 198.284 48.605,197.345 48.221,196.892 48.084 C 196.440 47.946,195.991 47.766,195.896 47.683 C 195.800 47.600,195.538 47.532,195.312 47.532 C 195.087 47.532,194.852 47.450,194.790 47.349 C 194.728 47.249,194.475 47.166,194.228 47.166 C 193.981 47.166,193.636 47.083,193.462 46.981 C 193.287 46.879,192.486 46.644,191.682 46.459 L 190.219 46.124 190.173 32.203 L 190.126 18.282 286.013 18.282 L 381.901 18.282 381.901 91.316 M235.693 46.404 C 235.512 46.519,235.473 48.497,235.510 55.679 L 235.558 64.808 250.137 64.855 L 264.717 64.902 264.717 99.522 C 264.717 128.537,264.757 134.175,264.966 134.349 C 265.146 134.498,267.729 134.542,274.244 134.508 L 283.272 134.461 283.319 99.681 L 283.365 64.902 298.035 64.855 L 312.706 64.808 312.753 55.679 C 312.790 48.497,312.751 46.519,312.570 46.404 C 312.269 46.213,235.994 46.213,235.693 46.404 M326.280 46.450 C 325.809 46.724,325.778 134.260,326.249 134.441 C 326.998 134.729,344.382 134.559,344.496 134.263 C 344.728 133.659,344.620 46.704,344.388 46.472 C 344.102 46.186,326.769 46.165,326.280 46.450 M312.387 55.622 L 312.340 64.625 297.761 64.672 L 283.181 64.719 283.181 99.453 L 283.181 134.186 274.243 134.186 C 266.261 134.186,265.292 134.156,265.193 133.897 C 265.132 133.738,265.082 118.108,265.082 99.163 L 265.082 64.719 250.411 64.672 L 235.740 64.625 235.693 55.850 C 235.667 51.024,235.685 46.972,235.733 46.846 C 235.802 46.665,243.650 46.618,274.128 46.618 L 312.435 46.618 312.387 55.622 M344.313 46.907 C 344.481 47.345,344.441 133.695,344.272 133.960 C 344.157 134.141,342.234 134.180,335.271 134.143 L 326.417 134.095 326.370 90.585 C 326.344 66.654,326.362 46.972,326.410 46.846 C 326.557 46.459,344.164 46.519,344.313 46.907 " stroke="none" fill="#2f78b9" fill-rule="evenodd"></path><path id="path4" d="M18.001 18.144 C 17.953 18.270,17.935 51.321,17.961 91.590 L 18.007 164.808 94.790 164.808 L 171.572 164.808 171.619 150.817 L 171.666 136.826 170.888 136.619 C 170.460 136.504,169.575 136.273,168.921 136.104 C 167.751 135.802,164.790 134.864,164.077 134.569 C 163.876 134.486,163.505 134.333,163.254 134.228 C 157.509 131.836,151.980 128.129,147.922 123.949 C 145.524 121.480,142.536 117.643,141.345 115.506 C 141.139 115.135,140.775 114.518,140.537 114.134 C 140.094 113.421,138.391 109.971,138.391 109.787 C 138.391 109.674,137.727 108.135,137.462 107.635 C 137.370 107.460,137.294 107.192,137.294 107.038 C 137.294 106.885,137.219 106.616,137.128 106.442 C 137.036 106.267,136.757 105.425,136.508 104.570 C 134.398 97.335,134.031 89.716,135.465 82.907 C 135.550 82.505,135.720 81.682,135.843 81.079 C 135.966 80.475,136.262 79.365,136.501 78.611 C 136.740 77.856,137.022 76.952,137.127 76.600 C 137.232 76.248,137.387 75.795,137.471 75.594 C 137.556 75.393,137.814 74.735,138.045 74.132 C 138.606 72.670,140.767 68.431,141.479 67.396 C 141.792 66.942,142.048 66.524,142.048 66.467 C 142.048 66.315,143.255 64.634,144.418 63.167 C 144.975 62.465,145.553 61.731,145.704 61.535 C 146.049 61.086,149.841 57.287,150.560 56.669 C 152.252 55.215,154.464 53.642,157.687 51.602 C 158.151 51.308,162.476 49.177,162.608 49.177 C 162.664 49.177,163.058 49.023,163.485 48.833 C 163.911 48.644,164.548 48.389,164.899 48.266 C 165.251 48.144,165.704 47.978,165.905 47.898 C 166.623 47.611,168.853 46.989,170.248 46.686 L 171.666 46.378 171.619 32.193 L 171.572 18.007 94.830 17.961 C 33.532 17.925,18.070 17.962,18.001 18.144 M171.481 32.181 C 171.481 43.146,171.433 46.094,171.252 46.144 C 171.127 46.178,170.571 46.309,170.018 46.435 C 169.465 46.561,168.684 46.766,168.282 46.889 C 167.879 47.013,167.180 47.217,166.728 47.344 C 166.275 47.470,165.740 47.638,165.539 47.717 C 165.338 47.796,164.886 47.962,164.534 48.086 C 164.182 48.210,163.565 48.457,163.163 48.635 C 162.761 48.813,162.102 49.100,161.700 49.272 C 159.841 50.071,157.633 51.236,156.645 51.940 C 156.378 52.130,156.111 52.285,156.053 52.285 C 155.848 52.285,152.913 54.370,151.463 55.546 C 149.338 57.268,145.662 61.005,144.330 62.797 C 144.031 63.199,143.741 63.569,143.685 63.620 C 143.396 63.880,141.499 66.721,141.499 66.893 C 141.499 67.003,141.417 67.093,141.316 67.093 C 141.216 67.093,141.133 67.183,141.133 67.294 C 141.133 67.404,140.978 67.712,140.789 67.979 C 140.068 68.994,137.477 74.365,137.477 74.844 C 137.477 74.994,137.395 75.166,137.294 75.229 C 137.194 75.291,137.112 75.537,137.112 75.777 C 137.112 76.016,137.029 76.263,136.929 76.325 C 136.828 76.388,136.746 76.634,136.746 76.874 C 136.746 77.113,136.673 77.354,136.584 77.409 C 136.495 77.464,136.381 77.736,136.330 78.014 C 136.280 78.292,136.096 79.013,135.922 79.616 C 134.873 83.257,134.487 86.438,134.481 91.499 C 134.475 96.363,134.864 99.844,135.768 103.016 C 136.267 104.765,136.790 106.492,136.932 106.856 C 137.010 107.057,137.175 107.509,137.297 107.861 C 137.547 108.580,137.910 109.435,138.415 110.501 C 138.603 110.896,138.757 111.328,138.757 111.460 C 138.757 111.592,138.839 111.700,138.940 111.700 C 139.040 111.700,139.122 111.819,139.122 111.963 C 139.122 112.592,142.040 117.327,144.000 119.880 C 148.658 125.947,155.479 131.255,162.343 134.153 C 162.894 134.385,163.488 134.653,163.663 134.747 C 163.838 134.841,164.106 134.918,164.260 134.918 C 164.413 134.918,164.682 134.996,164.856 135.092 C 165.221 135.292,167.524 136.051,168.739 136.371 C 169.191 136.490,169.814 136.665,170.123 136.758 C 170.431 136.852,170.863 136.929,171.082 136.929 L 171.481 136.929 171.481 150.731 L 171.481 164.534 94.790 164.534 L 18.099 164.534 18.099 91.408 L 18.099 18.282 94.790 18.282 L 171.481 18.282 171.481 32.181 M57.129 45.763 C 56.826 46.083,55.718 47.125,54.666 48.080 C 53.614 49.036,52.134 50.398,51.377 51.108 C 50.619 51.818,49.385 52.970,48.633 53.667 C 44.108 57.865,44.330 57.372,46.118 59.248 C 46.846 60.011,47.805 61.039,48.250 61.533 C 48.695 62.027,49.723 63.137,50.535 63.999 C 51.347 64.862,52.628 66.251,53.382 67.088 C 54.136 67.924,55.041 68.914,55.393 69.287 C 55.745 69.660,56.814 70.815,57.770 71.854 C 59.892 74.161,61.699 76.105,62.431 76.866 C 62.733 77.180,63.344 77.845,63.789 78.343 C 64.234 78.842,65.180 79.874,65.891 80.636 C 66.603 81.398,67.966 82.872,68.921 83.911 C 69.877 84.951,70.823 85.975,71.024 86.187 C 71.225 86.398,72.171 87.432,73.126 88.484 C 74.081 89.536,75.489 91.056,76.255 91.862 C 77.021 92.668,77.905 93.626,78.220 93.990 L 78.792 94.653 78.838 114.557 L 78.885 134.461 88.026 134.461 L 97.166 134.461 97.258 114.404 L 97.349 94.348 98.172 93.482 C 98.624 93.006,99.200 92.403,99.452 92.143 C 100.539 91.015,102.498 88.896,102.839 88.478 C 103.044 88.228,103.940 87.242,104.831 86.288 C 108.836 81.996,110.407 80.303,112.614 77.894 C 113.569 76.852,114.680 75.656,115.082 75.237 C 115.484 74.817,116.389 73.835,117.093 73.053 C 117.797 72.271,118.825 71.159,119.378 70.582 C 119.931 70.005,120.747 69.128,121.191 68.633 C 121.635 68.138,122.956 66.705,124.128 65.448 C 125.300 64.191,126.623 62.752,127.069 62.250 C 127.515 61.749,128.085 61.132,128.337 60.879 C 129.364 59.851,131.261 57.624,131.261 57.448 C 131.261 57.344,130.550 56.613,129.681 55.823 C 128.812 55.034,127.878 54.182,127.605 53.931 C 127.333 53.679,126.174 52.610,125.031 51.554 C 123.887 50.498,122.500 49.223,121.949 48.720 C 121.397 48.218,120.325 47.211,119.568 46.484 C 118.810 45.757,118.059 45.160,117.898 45.159 C 117.645 45.156,115.236 47.606,112.605 50.541 C 112.157 51.040,111.545 51.706,111.243 52.021 C 110.941 52.336,110.078 53.274,109.324 54.107 C 108.569 54.940,107.555 56.043,107.069 56.558 C 106.582 57.074,105.554 58.191,104.783 59.041 C 104.013 59.891,103.135 60.839,102.834 61.147 C 102.532 61.455,101.421 62.649,100.366 63.800 C 99.310 64.951,97.940 66.430,97.321 67.087 C 96.062 68.424,95.737 68.777,93.784 70.922 C 91.991 72.891,91.449 73.473,89.531 75.483 L 87.929 77.162 86.972 76.104 C 85.860 74.875,83.802 72.658,83.272 72.120 C 83.071 71.915,82.250 71.020,81.448 70.131 C 80.646 69.241,79.453 67.952,78.797 67.266 C 78.142 66.581,77.222 65.582,76.753 65.048 C 76.284 64.514,75.462 63.614,74.925 63.047 C 72.685 60.685,71.713 59.640,70.950 58.775 C 70.206 57.933,68.135 55.696,64.442 51.747 C 63.638 50.886,62.692 49.859,62.340 49.464 C 61.988 49.068,61.207 48.211,60.603 47.558 C 58.033 44.778,58.053 44.788,57.129 45.763 M58.555 45.755 C 58.777 45.985,59.322 46.581,59.767 47.081 C 60.212 47.580,61.569 49.058,62.783 50.364 C 63.997 51.670,65.402 53.189,65.905 53.738 C 66.408 54.288,66.984 54.912,67.185 55.125 C 67.386 55.339,68.414 56.451,69.470 57.598 C 72.026 60.374,73.511 61.976,76.160 64.815 C 77.376 66.118,78.762 67.628,79.240 68.170 C 79.717 68.712,80.285 69.336,80.502 69.557 C 80.719 69.778,81.760 70.894,82.815 72.038 C 87.050 76.625,87.649 77.242,87.928 77.292 C 88.220 77.346,88.690 76.882,92.048 73.224 C 93.053 72.129,94.122 70.973,94.424 70.654 C 94.726 70.336,95.374 69.631,95.864 69.087 C 96.355 68.544,97.717 67.070,98.891 65.814 C 100.065 64.557,101.392 63.118,101.839 62.616 C 102.285 62.114,102.856 61.496,103.108 61.243 C 103.359 60.990,103.928 60.372,104.371 59.870 C 104.814 59.368,105.721 58.382,106.386 57.678 C 107.051 56.974,108.457 55.455,109.510 54.302 C 110.564 53.149,112.050 51.544,112.813 50.737 C 113.575 49.929,114.563 48.860,115.007 48.361 C 115.450 47.862,116.266 46.977,116.819 46.393 L 117.824 45.333 118.302 45.747 C 119.182 46.510,120.738 47.933,122.128 49.246 C 122.887 49.962,124.038 51.034,124.688 51.627 C 125.337 52.221,126.761 53.537,127.852 54.552 C 128.943 55.568,130.112 56.639,130.450 56.934 L 131.066 57.469 129.841 58.853 C 129.167 59.615,128.444 60.402,128.235 60.603 C 128.026 60.804,127.243 61.632,126.496 62.442 C 122.194 67.105,121.260 68.112,120.904 68.472 C 120.688 68.691,120.119 69.313,119.642 69.855 C 119.164 70.397,117.813 71.869,116.640 73.126 C 115.467 74.383,114.102 75.855,113.606 76.398 C 113.111 76.941,112.500 77.601,112.249 77.865 C 111.997 78.129,110.953 79.255,109.929 80.367 C 108.904 81.478,107.835 82.637,107.552 82.942 C 107.270 83.246,105.352 85.332,103.291 87.576 C 101.229 89.820,98.990 92.237,98.314 92.948 L 97.085 94.241 97.080 114.009 C 97.076 130.478,97.033 133.811,96.826 133.983 C 96.646 134.132,94.134 134.177,87.822 134.143 L 79.068 134.095 78.976 114.160 L 78.885 94.225 78.428 93.760 C 77.835 93.157,76.036 91.224,73.857 88.847 C 72.902 87.805,71.874 86.697,71.572 86.385 C 71.271 86.073,70.661 85.410,70.217 84.911 C 69.773 84.412,68.786 83.344,68.023 82.538 C 67.260 81.732,65.855 80.212,64.899 79.160 C 63.944 78.109,62.998 77.075,62.797 76.864 C 62.596 76.654,61.650 75.626,60.695 74.581 C 59.739 73.537,58.378 72.062,57.668 71.304 C 56.959 70.547,55.930 69.434,55.383 68.831 C 54.836 68.228,53.841 67.158,53.174 66.454 C 52.506 65.750,51.560 64.723,51.071 64.172 C 50.583 63.622,49.918 62.891,49.593 62.550 C 47.779 60.637,45.400 58.042,45.205 57.765 C 44.961 57.417,44.785 57.603,49.189 53.543 C 50.238 52.575,52.660 50.335,54.570 48.564 C 56.481 46.793,58.068 45.342,58.098 45.341 C 58.128 45.339,58.333 45.526,58.555 45.755 M178.154 63.458 C 177.249 63.543,176.261 63.696,175.960 63.797 C 175.522 63.945,175.595 63.955,176.325 63.846 C 177.526 63.669,183.748 63.672,184.918 63.851 C 185.560 63.949,185.711 63.938,185.426 63.813 C 185.024 63.637,181.132 63.237,180.256 63.281 C 180.005 63.294,179.059 63.374,178.154 63.458 M174.040 64.168 C 173.694 64.392,174.255 64.392,174.954 64.168 C 175.402 64.025,175.400 64.022,174.863 64.006 C 174.561 63.998,174.191 64.071,174.040 64.168 M187.020 64.270 C 189.456 64.943,190.759 65.386,191.654 65.848 C 191.840 65.943,192.036 65.977,192.091 65.922 C 192.206 65.807,190.586 65.082,190.215 65.082 C 190.078 65.082,189.916 65.000,189.854 64.899 C 189.792 64.799,189.545 64.717,189.305 64.717 C 189.066 64.717,188.825 64.643,188.769 64.554 C 188.671 64.394,188.059 64.254,186.700 64.081 C 186.203 64.017,186.291 64.069,187.020 64.270 M172.669 64.534 C 172.534 64.752,172.892 64.752,173.400 64.534 C 173.727 64.394,173.713 64.375,173.274 64.364 C 173.003 64.357,172.731 64.433,172.669 64.534 M171.572 64.899 C 171.510 65.000,171.298 65.082,171.102 65.082 C 170.905 65.082,170.602 65.155,170.427 65.244 C 170.253 65.333,169.884 65.511,169.607 65.640 C 169.331 65.769,169.143 65.913,169.189 65.959 C 169.235 66.005,169.645 65.868,170.101 65.654 C 170.556 65.440,171.002 65.265,171.092 65.265 C 171.504 65.265,172.484 64.731,172.086 64.724 C 171.865 64.720,171.634 64.799,171.572 64.899 M167.550 66.608 C 166.947 66.925,166.426 67.246,166.392 67.322 C 166.359 67.397,166.256 67.459,166.163 67.459 C 165.991 67.459,163.921 68.863,163.085 69.548 C 159.438 72.531,154.296 79.652,154.296 81.718 C 154.296 81.908,154.214 82.113,154.113 82.176 C 154.013 82.238,153.935 82.469,153.940 82.689 C 153.947 82.971,154.034 82.873,154.234 82.358 C 157.056 75.109,161.623 69.858,167.834 66.723 C 168.432 66.421,168.921 66.134,168.921 66.085 C 168.921 65.925,168.662 66.024,167.550 66.608 M193.419 66.659 C 194.072 67.020,194.895 67.475,195.247 67.671 C 195.599 67.867,196.520 68.499,197.295 69.075 C 201.876 72.481,205.581 77.611,207.218 82.815 C 207.995 85.287,208.013 85.333,208.029 84.931 C 208.045 84.559,207.744 83.491,207.473 82.955 C 207.385 82.780,207.313 82.477,207.313 82.280 C 207.313 82.084,207.230 81.872,207.130 81.810 C 207.029 81.748,206.947 81.583,206.947 81.444 C 206.947 80.522,204.138 75.689,202.378 73.583 C 201.541 72.582,198.488 69.644,197.960 69.332 C 197.674 69.163,197.441 68.961,197.441 68.882 C 197.441 68.803,197.324 68.739,197.182 68.739 C 197.039 68.739,196.895 68.670,196.862 68.586 C 196.723 68.240,192.879 65.992,192.440 66.000 C 192.325 66.003,192.765 66.299,193.419 66.659 M153.698 83.291 C 153.625 83.365,153.570 83.637,153.576 83.897 L 153.588 84.369 153.765 83.928 C 153.955 83.452,153.915 83.074,153.698 83.291 M153.229 85.128 C 152.261 88.970,152.388 97.403,153.430 98.446 C 153.551 98.568,153.565 98.446,153.471 98.080 C 153.045 96.417,152.961 95.547,152.886 92.048 C 152.807 88.341,152.873 87.513,153.414 85.415 C 153.525 84.985,153.568 84.586,153.511 84.528 C 153.453 84.471,153.326 84.741,153.229 85.128 M208.108 85.923 C 208.534 88.386,208.761 91.784,208.592 93.140 C 208.304 95.443,208.383 96.392,208.714 94.607 C 209.115 92.442,208.703 85.946,208.130 85.408 C 208.057 85.339,208.047 85.571,208.108 85.923 M208.125 96.791 C 208.056 97.157,208.046 97.503,208.102 97.559 C 208.157 97.615,208.259 97.361,208.328 96.994 C 208.397 96.627,208.408 96.281,208.352 96.225 C 208.296 96.169,208.194 96.424,208.125 96.791 M207.883 97.989 C 207.868 98.140,207.810 98.469,207.755 98.720 C 207.667 99.115,207.681 99.133,207.861 98.852 C 207.975 98.673,208.033 98.344,207.989 98.121 C 207.946 97.898,207.899 97.838,207.883 97.989 M153.579 99.073 C 153.566 99.313,153.782 100.093,154.114 101.005 C 154.578 102.280,155.983 105.302,156.113 105.302 C 156.171 105.302,156.334 105.569,156.475 105.896 C 157.218 107.611,160.880 111.875,162.960 113.448 C 163.351 113.743,163.762 114.068,163.874 114.168 C 164.909 115.100,169.727 117.733,170.396 117.733 C 170.591 117.733,170.750 117.815,170.750 117.916 C 170.750 118.016,170.935 118.098,171.161 118.098 C 171.538 118.097,171.528 118.074,171.049 117.823 C 170.761 117.673,170.446 117.550,170.349 117.550 C 170.252 117.550,169.348 117.139,168.339 116.637 C 161.524 113.244,156.654 107.651,154.105 100.291 C 153.823 99.477,153.586 98.929,153.579 99.073 M207.517 99.391 C 207.505 99.508,207.442 99.755,207.377 99.939 C 207.285 100.199,207.310 100.227,207.486 100.065 C 207.610 99.950,207.673 99.703,207.625 99.517 C 207.577 99.330,207.528 99.273,207.517 99.391 M207.155 100.597 C 207.141 100.774,207.054 101.062,206.962 101.236 C 206.870 101.411,206.656 101.883,206.486 102.285 C 203.479 109.416,198.023 114.708,190.585 117.710 C 190.082 117.913,189.816 118.083,189.993 118.089 C 190.171 118.094,190.459 118.026,190.633 117.937 C 190.808 117.848,191.156 117.692,191.408 117.589 C 195.795 115.797,199.774 112.771,202.993 108.778 C 204.226 107.248,206.947 102.314,206.947 101.608 C 206.947 101.444,207.037 101.280,207.148 101.243 C 207.258 101.206,207.310 100.973,207.264 100.725 C 207.215 100.464,207.169 100.410,207.155 100.597 M171.755 118.282 C 171.817 118.382,172.048 118.463,172.269 118.462 C 172.594 118.459,172.618 118.426,172.395 118.282 C 172.035 118.049,171.611 118.049,171.755 118.282 M188.208 118.458 C 183.409 119.879,179.443 119.899,173.120 118.536 C 172.790 118.465,172.743 118.485,172.943 118.611 C 173.225 118.788,174.974 119.175,177.239 119.561 C 178.645 119.800,183.258 119.717,185.101 119.419 C 186.507 119.192,189.253 118.463,189.479 118.257 C 189.717 118.040,189.508 118.073,188.208 118.458 " stroke="none" fill="#7d7e85" fill-rule="evenodd"></path></g></svg>