<?xml version="1.0" encoding="utf-8"?>
<svg xmlns="http://www.w3.org/2000/svg" viewBox="0 0 777.6 170.76"><defs><style>.cls-1{fill:#3b2ca8;}</style></defs><title>Asset 2</title><g id="Layer_2" data-name="Layer 2"><g id="Layer_1-2" data-name="Layer 1"><path class="cls-1" d="M114,113.64c0-29,23.21-51.62,53-51.62,29.61,0,53.22,22.81,53.22,51.62s-23.61,51.82-53.42,51.82C137.16,165.46,114,142.65,114,113.64Zm78.63.2c0-15.61-11-27.21-25.61-27.21-14.81,0-25.61,11.4-25.61,27.21,0,15.61,10.8,26.81,25.61,26.81C181.58,140.65,192.58,129.24,192.58,113.84Z"/><path class="cls-1" d="M235.2,119.64V64.22h27v57.62c0,11.6,8.2,19,18.81,19,10.2,0,18.41-7.4,18.41-19V64.22h27v55.42c0,28-19.61,46-45.42,46C254.81,165.66,235.2,147.65,235.2,119.64Z"/><path class="cls-1" d="M341.64,113.64c0-29.21,23.41-51.62,53-51.62,19.81,0,34.81,9.6,43,24.41L418.87,101c-5.6-8.4-12.81-14.41-23.81-14.41-15.41,0-26,11.6-26,27,0,15.61,10.6,27.21,26,27.21,10.8,0,18-6,23.81-14.21L437.68,141c-8.2,14.81-23.41,24.61-43,24.61C365,165.66,341.64,143,341.64,113.64Z"/><path class="cls-1" d="M543.72,101.83v61.42H516.91V105.63c0-11.6-7.4-19.21-18.41-19.21s-18.81,7.8-18.81,19.21v57.62h-27V13.2h27V72.62c6.6-6.6,16-10.6,27.21-10.6C529.51,62,543.72,78,543.72,101.83Z"/><path class="cls-1" d="M655.76,122.84H586.33c3.2,12.61,13.4,19.61,27.81,19.61,10.8,0,19.61-3.8,27.61-10L653,150.85c-11.2,9.4-24.41,14.81-39.62,14.81-31.41,0-54.22-22.61-54.22-51.82S581.73,62,610.94,62c27.81,0,46.62,20.41,46.62,46A69.36,69.36,0,0,1,655.76,122.84Zm-69.43-19h45c-.2-12.6-10-20-21.41-20S589.33,91.43,586.33,103.83Z"/><path class="cls-1" d="M777.6,13.2V163.26H752.79v-12.2c-6.8,9.4-18.21,14.61-31.81,14.61-28,0-48-22-48-51.82S693,62,721,62c12.4,0,22.61,4.2,29.61,11.8V13.2ZM751,113.84c0-18.81-12.61-27.41-25-27.41-14,0-25.61,10.4-25.61,27.21S711.78,141,726,141C738.39,141,751,132.84,751,113.84Z"/><polygon class="cls-1" points="51.79 170.76 142.1 14.09 117.66 0 52.14 113.66 24.61 64.54 0 78.33 51.79 170.76"/></g></g></svg>